<svg width="173" height="173" viewBox="0 0 173 173" fill="none" xmlns="http://www.w3.org/2000/svg">
<g clip-path="url(#clip0_158_1372)">
<path d="M86.5 173C38.8086 173 0 134.194 0 86.4931C0 38.7918 38.8086 0 86.5 0C134.191 0 173 38.8055 173 86.4931C173 134.181 134.191 172.986 86.5 172.986V173ZM86.5 0.853777C39.2769 0.853777 0.853845 39.2737 0.853845 86.4931C0.853845 133.712 39.2769 172.132 86.5 172.132C133.723 172.132 172.146 133.712 172.146 86.4931C172.146 39.2737 133.723 0.853777 86.5 0.853777Z" fill="white"/>
<path d="M35.5722 17.1306L39.621 22.7077C39.8552 22.5425 40.0893 22.3772 40.3234 22.212L36.2745 16.6349L35.5722 17.1444V17.1306ZM47.2919 17.7228L43.849 11.7601L43.1053 12.187L46.5482 18.1496C46.7961 17.9982 47.044 17.8605 47.2919 17.7228ZM28.6037 22.8316L33.2034 27.9405C33.41 27.7478 33.6304 27.5687 33.8507 27.3759L29.2372 22.2533L28.6037 22.8316ZM62.4407 11.0578L60.3199 4.53053L59.5074 4.79217L61.6282 11.3332C61.9036 11.2368 62.1653 11.1404 62.4407 11.0578ZM70.4559 8.95089L69.0236 2.23084L68.1835 2.40985L69.6158 9.14368C69.8912 9.08859 70.1667 9.00597 70.4559 8.95089ZM54.6873 13.9909L51.8916 7.71153L51.1066 8.0558L53.9023 14.3352C54.1639 14.2113 54.4256 14.1011 54.6873 13.9772V13.9909ZM22.2549 29.235L27.378 33.8481C27.5708 33.6278 27.7498 33.4075 27.9426 33.2009L22.8333 28.6015L22.2549 29.235ZM22.6956 39.6042L17.1319 35.5557L16.6223 36.258L22.1999 40.3065C22.3651 40.0724 22.5304 39.8383 22.6956 39.6042ZM78.65 7.71153L77.9339 0.867547L77.08 0.963941L77.7962 7.8217C78.0854 7.79416 78.3608 7.75285 78.65 7.7253V7.71153ZM7.80843 77.7901L0.97767 77.074L0.881268 77.9278L7.71203 78.6439C7.73957 78.3547 7.78089 78.0793 7.80843 77.7901ZM9.14428 69.6104L2.4237 68.1782L2.24467 69.0182L8.95148 70.4366C9.00657 70.1612 9.0892 69.8858 9.14428 69.5966V69.6104ZM14.35 53.8981L8.07009 51.1027L7.7258 51.8876L14.0057 54.683C14.1159 54.4214 14.2398 54.1598 14.3638 53.8981H14.35ZM11.334 61.6234L4.8062 59.5027L4.54454 60.3152L11.0723 62.4359C11.155 62.1605 11.2651 61.8988 11.3478 61.6234H11.334ZM18.151 46.5446L12.1878 43.102L11.7609 43.8456L17.724 47.2882C17.8618 47.0404 18.0133 46.7925 18.151 46.5446ZM125.735 17.7228C125.983 17.8605 126.231 18.0119 126.479 18.1496L129.95 12.1457L129.206 11.7188L125.735 17.7228ZM155.29 47.2882L161.294 43.818L160.867 43.0744L154.863 46.5446C155 46.7925 155.152 47.0404 155.29 47.2882ZM150.786 29.2074L150.208 28.574L145.057 33.2009C145.25 33.4075 145.429 33.6278 145.622 33.8481L150.772 29.2074H150.786ZM159.022 54.683L165.343 51.8738L164.999 51.0889L158.677 53.9119C158.801 54.1735 158.911 54.4352 159.035 54.6968L159.022 54.683ZM150.814 40.3203L156.433 36.2442L155.923 35.5419L150.318 39.618C150.483 39.8521 150.648 40.0862 150.814 40.3203ZM161.955 62.4359L168.524 60.3014L168.262 59.489L161.68 61.6234C161.776 61.8988 161.872 62.1605 161.955 62.4359ZM165.302 78.6439L172.187 77.9278L172.105 77.074L165.219 77.8039C165.246 78.0931 165.288 78.3685 165.315 78.6576L165.302 78.6439ZM164.062 70.4504L170.81 69.0182L170.631 68.1782L163.869 69.6104C163.924 69.8858 164.007 70.1612 164.062 70.4504ZM86.073 7.32596C86.2107 7.32596 86.3622 7.32596 86.4999 7.32596C86.6376 7.32596 86.7891 7.32596 86.9268 7.32596V0.440659H86.073V7.33973V7.32596ZM139.163 27.3759C139.383 27.5687 139.604 27.7478 139.81 27.9405L144.451 22.7903L143.818 22.212L139.177 27.3622L139.163 27.3759ZM94.3635 7.69776C94.6527 7.7253 94.9282 7.76662 95.2174 7.79416L95.9473 0.908859L95.0934 0.812465L94.3635 7.69776ZM110.573 11.044C110.848 11.1266 111.11 11.223 111.385 11.3194L113.52 4.73708L112.707 4.47544L110.573 11.044ZM102.558 8.93712C102.847 8.9922 103.122 9.07482 103.398 9.1299L104.83 2.35477L103.99 2.17575L102.558 8.93712ZM118.326 13.9772C118.588 14.0873 118.85 14.2113 119.111 14.3352L121.934 8.00072L121.149 7.65645L118.34 13.9772H118.326ZM132.69 22.1844C132.924 22.3497 133.158 22.5149 133.393 22.6802L137.469 17.0755L136.767 16.566L132.69 22.1844ZM7.31265 86.4931C7.31265 86.3416 7.31265 86.2039 7.31265 86.0525H0.454346V86.9062H7.32642C7.32642 86.7685 7.32642 86.6171 7.32642 86.4793L7.31265 86.4931ZM8.93771 102.536L2.24467 103.954L2.4237 104.794L9.13051 103.362C9.07543 103.087 8.9928 102.811 8.93771 102.522V102.536ZM150.304 133.368L155.895 137.431L156.405 136.728L150.814 132.666C150.648 132.9 150.483 133.134 150.318 133.368H150.304ZM139.163 145.61L143.79 150.747L144.424 150.168L139.81 145.046C139.604 145.238 139.369 145.417 139.163 145.61ZM145.057 139.785L150.194 144.412L150.772 143.779L145.636 139.152C145.443 139.372 145.264 139.593 145.071 139.799L145.057 139.785ZM132.69 150.788L136.753 156.379L137.455 155.869L133.393 150.279C133.158 150.444 132.924 150.609 132.69 150.774V150.788ZM110.559 161.942L112.68 168.483L113.492 168.222L111.358 161.667C111.082 161.763 110.821 161.86 110.545 161.942H110.559ZM118.312 159.009L121.122 165.302L121.907 164.958L119.097 158.651C118.836 158.775 118.574 158.885 118.312 159.009ZM102.544 164.049L103.976 170.769L104.816 170.59L103.384 163.843C103.109 163.898 102.833 163.98 102.544 164.035V164.049ZM125.722 155.277L129.178 161.254L129.922 160.827L126.465 154.85C126.217 155.002 125.97 155.14 125.722 155.277ZM163.869 103.376L170.631 104.808L170.81 103.968L164.062 102.536C164.007 102.811 163.924 103.087 163.869 103.376ZM165.205 95.1961L172.091 95.926L172.174 95.0722L165.288 94.3561C165.26 94.6453 165.219 94.9207 165.191 95.2099L165.205 95.1961ZM165.673 86.0662C165.673 86.2177 165.673 86.3554 165.673 86.5069C165.673 86.6584 165.673 86.7961 165.673 86.9338H172.601V86.08H165.673V86.0662ZM161.68 111.377L168.249 113.511L168.51 112.699L161.941 110.564C161.859 110.84 161.762 111.101 161.666 111.377H161.68ZM158.664 119.102L164.971 121.911L165.315 121.126L159.008 118.317C158.898 118.579 158.774 118.84 158.65 119.102H158.664ZM7.71203 94.3424L0.89504 95.0584L0.991442 95.9122L7.8222 95.1961C7.79466 94.907 7.75334 94.6315 7.7258 94.3424H7.71203ZM154.863 126.442L160.853 129.898L161.28 129.154L155.29 125.698C155.152 125.946 155 126.194 154.863 126.442ZM22.2687 143.751L22.8471 144.385L27.9426 139.799C27.7498 139.593 27.5708 139.372 27.378 139.152L22.2687 143.751ZM35.5859 155.856L36.2883 156.365L40.3234 150.802C40.0893 150.637 39.8552 150.471 39.621 150.306L35.5859 155.856ZM28.6175 150.155L29.251 150.733L33.8507 145.624C33.6304 145.431 33.41 145.252 33.2034 145.059L28.6175 150.155ZM22.1999 132.68L16.6361 136.714L17.1456 137.417L22.6956 133.382C22.5304 133.148 22.3651 132.914 22.1999 132.68ZM11.0448 110.55L4.53077 112.671L4.79243 113.483L11.3202 111.363C11.2238 111.087 11.1274 110.826 11.0448 110.55ZM13.9781 118.303L7.71203 121.085L8.05632 121.87L14.3224 119.074C14.1985 118.813 14.0883 118.551 13.9644 118.289L13.9781 118.303ZM94.3498 165.275L95.0659 172.119L95.9197 172.022L95.2036 165.165C94.9144 165.192 94.639 165.233 94.3498 165.261V165.275ZM17.7103 125.698L11.7609 129.127L12.1878 129.87L18.1372 126.442C17.9995 126.194 17.848 125.946 17.7103 125.698ZM77.08 172.009L77.9339 172.105L78.65 165.275C78.3608 165.247 78.0854 165.206 77.7962 165.178L77.08 172.009ZM86.0592 165.647V172.546H86.913V165.647C86.7753 165.647 86.6238 165.647 86.4861 165.647C86.3484 165.647 86.1969 165.647 86.0592 165.647ZM68.1835 170.549L69.0236 170.728L70.4421 164.035C70.1667 163.98 69.8912 163.898 69.602 163.843L68.1698 170.549H68.1835ZM51.0929 164.903L51.8778 165.247L54.6735 158.982C54.4118 158.871 54.1502 158.747 53.8885 158.624L51.0929 164.889V164.903ZM59.4936 168.167L60.3061 168.428L62.427 161.915C62.1515 161.832 61.8899 161.722 61.6144 161.639L59.4936 168.167ZM43.0915 160.772L43.8352 161.199L47.2643 155.25C47.0164 155.112 46.7685 154.961 46.5207 154.823L43.0915 160.772Z" fill="white"/>
<path d="M52.3599 24.7595L44.6064 11.3194L42.3754 12.6139L50.1288 26.054C50.8587 25.6133 51.6162 25.1864 52.3599 24.7595ZM15.92 86.4931C15.92 86.0525 15.9475 85.6256 15.9475 85.1987H0.454346V87.7876H15.9613C15.9613 87.3607 15.9337 86.9338 15.9337 86.5069L15.92 86.4931ZM11.334 44.5754L24.7752 52.3283C25.1883 51.5709 25.6152 50.8273 26.0697 50.0837L12.6423 42.3308L11.3478 44.5617L11.334 44.5754ZM161.721 44.5617L160.426 42.3308L146.944 50.1112C147.385 50.841 147.811 51.5984 148.238 52.3558L161.721 44.5754V44.5617ZM85.2191 15.9601C85.646 15.9601 86.073 15.9326 86.5137 15.9326C86.9544 15.9326 87.3675 15.9601 87.8082 15.9601V0.440659H85.2329V15.9601H85.2191ZM120.667 24.7733C121.425 25.1864 122.169 25.6133 122.898 26.0677L130.679 12.5863L128.448 11.2919L120.667 24.7733ZM146.958 122.875L160.413 130.642L161.707 128.411L148.238 120.644C147.825 121.402 147.398 122.145 146.944 122.875H146.958ZM120.667 148.227L128.435 161.681L130.666 160.386L122.898 146.932C122.169 147.373 121.411 147.8 120.667 148.227ZM157.052 85.1987C157.052 85.6256 157.08 86.0662 157.08 86.4931C157.08 86.92 157.052 87.3469 157.052 87.7738H172.601V85.1849H157.052V85.1987ZM42.3754 160.372L44.6064 161.667L52.3599 148.24C51.6024 147.827 50.8587 147.4 50.1288 146.946L42.3754 160.372ZM11.3478 128.411L12.6423 130.642L26.0559 122.889C25.6152 122.159 25.1883 121.402 24.7614 120.658L11.334 128.411H11.3478ZM85.2191 157.054V172.573H87.7944V157.054C87.3675 157.054 86.9406 157.081 86.4999 157.081C86.0592 157.081 85.646 157.054 85.2053 157.054H85.2191Z" fill="white"/>
<path d="M44.7579 66.4431C44.8956 66.4431 45.0471 66.4156 45.1848 66.4156C45.3226 66.4156 45.474 66.4294 45.6118 66.4431V62.4083H44.7579V66.4431ZM35.5171 68.9081L33.5064 65.4241L32.7628 65.851L34.7872 69.3487C35.0351 69.1972 35.2692 69.0458 35.5171 68.9081ZM25.1057 86.5069C25.1057 86.3554 25.1195 86.2177 25.1333 86.08H21.0981V86.9338H25.1333C25.1333 86.7823 25.1057 86.6446 25.1057 86.5069ZM54.8526 68.9081C55.1005 69.0458 55.3483 69.211 55.5825 69.3487L57.6069 65.851L56.8632 65.4241L54.8526 68.9081ZM66.2693 74.8294L65.8424 74.0858L62.3444 76.1101C62.4958 76.358 62.6473 76.5921 62.7851 76.8399L66.2693 74.8294ZM28.0253 76.1101L24.5273 74.0858L24.1004 74.8294L27.5846 76.8399C27.7223 76.5921 27.8876 76.3442 28.0253 76.1101ZM62.3306 96.9037L65.8286 98.928L66.2555 98.1844L62.7713 96.1738C62.6336 96.4217 62.4683 96.6696 62.3306 96.9037ZM65.2364 86.0662C65.2364 86.2039 65.264 86.3554 65.264 86.4931C65.264 86.6308 65.2502 86.7823 65.2364 86.92H69.2715V86.0662H65.2364ZM54.8388 104.092L56.8495 107.576L57.5931 107.149L55.5687 103.651C55.3208 103.803 55.0867 103.954 54.8388 104.092ZM32.749 107.149L33.4927 107.576L35.5033 104.092C35.2554 103.954 35.0076 103.789 34.7734 103.651L32.749 107.149ZM44.7441 106.557V110.592H45.598V106.557C45.4603 106.557 45.3088 106.584 45.1711 106.584C45.0333 106.584 44.8819 106.571 44.7441 106.557ZM24.0866 98.1706L24.5135 98.9142L28.0115 96.8899C27.86 96.642 27.7086 96.4079 27.5708 96.1601L24.0866 98.1706Z" fill="white"/>
<path d="M38.5331 63.331L40.0205 68.8943C40.2959 68.8117 40.5714 68.7428 40.8606 68.674L39.3732 63.1106L38.5469 63.331H38.5331ZM32.5287 73.232L28.4523 69.1559L27.8463 69.7618L31.9227 73.8379C32.1155 73.6314 32.3221 73.4248 32.5287 73.232ZM21.8005 80.6682L27.3643 82.1554C27.4332 81.88 27.502 81.5908 27.5846 81.3154L22.0209 79.8281L21.8005 80.6544V80.6682ZM49.523 68.674C49.7984 68.7428 50.0876 68.8117 50.3493 68.8943L51.8366 63.331L51.0103 63.1106L49.523 68.674ZM57.8548 73.232C58.0614 73.4248 58.268 73.6314 58.4608 73.8379L62.5372 69.7618L61.9313 69.1559L57.8548 73.232ZM68.583 80.6819L68.3626 79.8557L62.8126 81.3429C62.8953 81.6183 62.9641 81.8937 63.033 82.1691L68.5968 80.6819H68.583ZM49.523 104.326L51.0103 109.889L51.8366 109.669L50.3493 104.106C50.0738 104.188 49.7984 104.257 49.523 104.326ZM62.7989 91.6709L68.3489 93.1581L68.5692 92.3319L63.0054 90.8446C62.9366 91.12 62.8677 91.4092 62.7851 91.6846L62.7989 91.6709ZM57.8411 99.768L61.9175 103.844L62.5234 103.238L58.447 99.1621C58.2542 99.3686 58.0476 99.5752 57.8411 99.768ZM38.5331 109.669L39.3594 109.889L40.8468 104.326C40.5714 104.257 40.2821 104.188 40.0067 104.106L38.5194 109.669H38.5331ZM21.8005 92.3181L22.0209 93.1443L27.5846 91.6571C27.502 91.3817 27.4332 91.1063 27.3643 90.8308L21.8005 92.3181ZM27.8463 103.238L28.4523 103.844L32.5287 99.768C32.3221 99.5752 32.1155 99.3686 31.9227 99.1621L27.8463 103.238Z" fill="white"/>
<path d="M45.1849 111.032C31.6611 111.032 20.6575 100.03 20.6575 86.5069C20.6575 72.9842 31.6611 61.9814 45.1849 61.9814C58.7087 61.9814 69.7122 72.9842 69.7122 86.5069C69.7122 100.03 58.7087 111.032 45.1849 111.032ZM45.1849 62.8352C32.1293 62.8352 21.5113 73.4524 21.5113 86.5069C21.5113 99.5614 32.1293 110.179 45.1849 110.179C58.2404 110.179 68.8584 99.5614 68.8584 86.5069C68.8584 73.4524 58.2404 62.8352 45.1849 62.8352Z" fill="white"/>
<path d="M48.4624 87.4984C48.5588 87.1816 48.6277 86.8511 48.6277 86.4931C48.6277 84.5928 47.0852 83.0505 45.1848 83.0505C44.7578 83.0505 44.3584 83.1331 43.9866 83.2708L29.9808 70.0648L28.1492 69.4589L28.7551 71.2904L41.9622 85.3088C41.8245 85.6806 41.7418 86.08 41.7418 86.5069C41.7418 88.4072 43.2843 89.9495 45.1848 89.9495C45.5428 89.9495 45.8733 89.8807 46.1901 89.7843L48.8342 92.5935L51.2718 90.1561L48.4624 87.5121V87.4984ZM45.1848 88.2144C44.2345 88.2144 43.4633 87.4433 43.4633 86.4931C43.4633 85.5429 44.2345 84.7718 45.1848 84.7718C46.135 84.7718 46.9062 85.5429 46.9062 86.4931C46.9062 87.4433 46.135 88.2144 45.1848 88.2144Z" fill="white"/>
<path d="M110.669 76.0963L107.171 74.072L106.744 74.8156L110.229 76.8261C110.366 76.5783 110.532 76.3304 110.683 76.0963H110.669ZM118.161 68.8943L116.15 65.4103L115.407 65.8372L117.431 69.3349C117.679 69.1835 117.913 69.032 118.161 68.8943ZM137.497 68.8943C137.744 69.032 137.992 69.1972 138.227 69.3349L140.251 65.8234L139.507 65.3966L137.497 68.8805V68.8943ZM148.913 74.8156L148.486 74.072L144.988 76.0963C145.14 76.3442 145.291 76.5783 145.443 76.8261L148.927 74.8156H148.913ZM107.75 86.4931C107.75 86.3416 107.764 86.2039 107.777 86.0662H103.742V86.9338H107.777C107.777 86.7823 107.75 86.6446 107.75 86.5069V86.4931ZM127.402 66.4293C127.553 66.4293 127.691 66.4018 127.829 66.4018C127.967 66.4018 128.118 66.4156 128.256 66.4293V62.3946H127.402V66.4293ZM127.402 106.543V110.578H128.256V106.543C128.104 106.543 127.967 106.571 127.829 106.571C127.691 106.571 127.54 106.557 127.402 106.543ZM106.744 98.1568L107.171 98.9004L110.669 96.8761C110.518 96.6283 110.366 96.3942 110.229 96.1463L106.744 98.1568ZM147.88 86.0524C147.88 86.2039 147.908 86.3416 147.908 86.4793C147.908 86.617 147.894 86.7685 147.88 86.9062H151.916V86.0387H147.88V86.0524ZM144.975 96.8899L148.473 98.9142L148.9 98.1706L145.415 96.1601C145.278 96.4079 145.112 96.6558 144.961 96.8899H144.975ZM137.483 104.092L139.493 107.576L140.237 107.149L138.213 103.651C137.965 103.803 137.731 103.954 137.483 104.092ZM115.407 107.149L116.15 107.576L118.161 104.092C117.913 103.954 117.665 103.789 117.431 103.651L115.407 107.149Z" fill="white"/>
<path d="M127.815 111.032C114.291 111.032 103.288 100.03 103.288 86.5069C103.288 72.9842 114.291 61.9814 127.815 61.9814C141.339 61.9814 152.342 72.9842 152.342 86.5069C152.342 100.03 141.339 111.032 127.815 111.032ZM127.815 62.8352C114.759 62.8352 104.141 73.4524 104.141 86.5069C104.141 99.5614 114.759 110.179 127.815 110.179C140.871 110.179 151.489 99.5614 151.489 86.5069C151.489 73.4524 140.871 62.8352 127.815 62.8352Z" fill="white"/>
<path d="M144.864 69.4589L143.047 70.0786L129.027 83.2846C128.655 83.1469 128.242 83.0505 127.829 83.0505C125.928 83.0505 124.386 84.5928 124.386 86.4931C124.386 86.8512 124.455 87.1816 124.551 87.4984L121.742 90.1423L124.179 92.5797L126.823 89.7705C127.14 89.8669 127.471 89.9358 127.829 89.9358C129.729 89.9358 131.272 88.3935 131.272 86.4931C131.272 86.0662 131.189 85.6669 131.051 85.2951L144.272 71.2766L144.878 69.4451L144.864 69.4589ZM127.829 88.2144C126.879 88.2144 126.107 87.4433 126.107 86.4931C126.107 85.5429 126.879 84.7718 127.829 84.7718C128.779 84.7718 129.55 85.5429 129.55 86.4931C129.55 87.4433 128.779 88.2144 127.829 88.2144Z" fill="white"/>
<path d="M86.0593 107.755C86.197 107.755 86.3485 107.727 86.4862 107.727C86.624 107.727 86.7754 107.741 86.9132 107.755V103.72H86.0593V107.755ZM81.0602 104.326L81.9003 108.278C82.1757 108.209 82.4511 108.141 82.7403 108.099L81.9003 104.161L81.0602 104.34V104.326ZM71.9846 108.567L74.3672 111.845C74.6013 111.666 74.8216 111.501 75.0557 111.335L72.687 108.072L71.9846 108.581V108.567ZM76.2952 105.979L77.934 109.669C78.1957 109.545 78.4436 109.407 78.7052 109.297L77.0664 105.62L76.2814 105.965L76.2952 105.979ZM67.5502 121.195L63.7216 119.956L63.46 120.768L67.2747 122.007C67.3574 121.732 67.4538 121.47 67.5502 121.195ZM66.5861 125.271L62.5786 124.844L62.4822 125.698L66.4897 126.125C66.5173 125.836 66.5448 125.56 66.5861 125.271ZM68.3076 111.996L71.3098 114.695C71.5026 114.475 71.6954 114.268 71.8882 114.062L68.886 111.363L68.3076 111.996ZM69.3405 117.394L65.8425 115.37L65.4155 116.114L68.8998 118.124C69.0375 117.876 69.2028 117.628 69.3405 117.394ZM104.086 118.138L107.584 116.114L107.158 115.37L103.646 117.394C103.797 117.642 103.949 117.876 104.1 118.124L104.086 118.138ZM90.2321 108.085C90.5213 108.14 90.7968 108.209 91.0722 108.264L91.9123 104.285L91.0722 104.106L90.2321 108.072V108.085ZM106.483 126.125L110.518 125.698L110.435 124.844L106.4 125.271C106.441 125.56 106.469 125.836 106.497 126.125H106.483ZM105.712 122.007L109.554 120.754L109.292 119.942L105.436 121.195C105.532 121.47 105.629 121.732 105.712 122.007ZM97.9305 111.308C98.1646 111.473 98.385 111.652 98.6191 111.817L101.015 108.526L100.313 108.017L97.9305 111.294V111.308ZM104.706 111.982L104.128 111.349L101.112 114.076C101.305 114.282 101.497 114.489 101.69 114.709L104.706 111.996V111.982ZM94.2672 109.283C94.5289 109.394 94.7906 109.531 95.0385 109.655L96.6911 105.937L95.9061 105.593L94.2535 109.297L94.2672 109.283ZM97.9443 144.288L100.313 147.552L101.015 147.042L98.6329 143.765C98.3988 143.944 98.1784 144.123 97.9443 144.275V144.288ZM101.112 141.534L104.114 144.247L104.692 143.614L101.69 140.915C101.497 141.135 101.305 141.341 101.112 141.548V141.534ZM90.2459 147.511L91.086 151.449L91.9261 151.27L91.086 147.318C90.8106 147.387 90.5351 147.456 90.2459 147.497V147.511ZM94.2672 146.313L95.9061 149.989L96.6911 149.645L95.0522 145.955C94.7906 146.078 94.5427 146.216 94.281 146.326L94.2672 146.313ZM106.4 130.311L110.435 130.738L110.518 129.884L106.497 129.457C106.469 129.747 106.441 130.022 106.4 130.311ZM105.436 134.401L109.278 135.654L109.54 134.842L105.698 133.589C105.615 133.864 105.519 134.126 105.422 134.401H105.436ZM103.646 138.188L107.158 140.212L107.584 139.469L104.086 137.458C103.949 137.706 103.783 137.954 103.646 138.188ZM67.261 133.575L63.4462 134.814L63.7079 135.627L67.5364 134.387C67.44 134.112 67.3436 133.85 67.261 133.575ZM68.886 137.458L65.4155 139.469L65.8425 140.212L69.3405 138.202C69.189 137.954 69.0375 137.72 68.8998 137.472L68.886 137.458ZM68.2938 143.586L68.8722 144.219L71.8607 141.52C71.6679 141.314 71.4751 141.107 71.2823 140.887L68.2938 143.586ZM66.4897 129.457L62.4822 129.884L62.5786 130.738L66.5861 130.311C66.5448 130.022 66.5173 129.747 66.4897 129.457ZM76.2952 149.631L77.0802 149.976L78.7052 146.313C78.4436 146.202 78.1819 146.065 77.934 145.941L76.2952 149.618V149.631ZM71.9846 147.029L72.687 147.538L75.042 144.288C74.8078 144.123 74.5875 143.944 74.3534 143.779L71.9846 147.042V147.029ZM81.0602 151.27L81.9003 151.449L82.7403 147.524C82.4511 147.469 82.1757 147.4 81.9003 147.345L81.0602 151.284V151.27ZM86.0593 147.869V151.903H86.9132V147.869C86.7754 147.869 86.624 147.896 86.4862 147.896C86.3485 147.896 86.197 147.882 86.0593 147.869Z" fill="white"/>
<path d="M86.5 152.344C72.9762 152.344 61.9727 141.341 61.9727 127.819C61.9727 114.296 72.9762 103.293 86.5 103.293C100.024 103.293 111.027 114.296 111.027 127.819C111.027 141.341 100.024 152.344 86.5 152.344ZM86.5 104.147C73.4445 104.147 62.8265 114.764 62.8265 127.819C62.8265 140.873 73.4445 151.49 86.5 151.49C99.5556 151.49 110.174 140.873 110.174 127.819C110.174 114.764 99.5556 104.147 86.5 104.147Z" fill="white"/>
<path d="M89.943 127.805C89.943 126.414 89.1167 125.216 87.9323 124.679L87.3677 105.428L86.5139 103.706L85.66 105.428L85.0954 124.679C83.911 125.216 83.0847 126.414 83.0847 127.805C83.0847 129.127 83.8284 130.256 84.9163 130.834L84.8062 134.69H88.2491L88.1389 130.834C89.2269 130.256 89.9706 129.127 89.9706 127.805H89.943ZM86.5001 129.526C85.5498 129.526 84.7786 128.755 84.7786 127.805C84.7786 126.855 85.5498 126.084 86.5001 126.084C87.4503 126.084 88.2216 126.855 88.2216 127.805C88.2216 128.755 87.4503 129.526 86.5001 129.526Z" fill="white"/>
<path d="M148.555 43.0607L85.9766 78.8917L41.7832 60.6732L77.6722 88.3108L72.3977 96.3666L85.5359 93.282C85.8526 93.3233 86.1694 93.3784 86.4999 93.3784C87.0508 93.3784 87.5741 93.2958 88.0836 93.1719L101.415 95.0997L95.6305 87.76L148.541 43.0607H148.555ZM86.5137 90.5554C84.2689 90.5554 82.451 88.7377 82.451 86.4931C82.451 84.2485 84.2689 82.4308 86.5137 82.4308C88.7584 82.4308 90.5763 84.2485 90.5763 86.4931C90.5763 88.7377 88.7584 90.5554 86.5137 90.5554Z" fill="white"/>
<path d="M91.2237 68.9632C90.7555 68.8392 90.2872 69.1146 90.1633 69.5691L86.0869 84.7856C85.357 84.9921 84.8199 85.6256 84.8199 86.4105C84.8199 86.8787 85.0127 87.3194 85.3294 87.6223L64.3276 165.991C64.2036 166.445 64.4791 166.927 64.9335 167.051C65.0024 167.065 65.085 167.079 65.1539 167.079C65.5395 167.079 65.8838 166.831 65.9802 166.445L86.9958 88.0492C87.7257 87.8426 88.2628 87.2092 88.2628 86.4243C88.2628 85.9423 88.07 85.5154 87.7532 85.2125L91.8296 70.0235C91.9536 69.5691 91.6782 69.0871 91.2237 68.9632Z" fill="#E53935"/>
</g>
<defs>
<clipPath id="clip0_158_1372">
<rect width="173" height="173" fill="white"/>
</clipPath>
</defs>
</svg>
